<svg width="70" height="105" viewBox="0 0 70 105" fill="none" xmlns="http://www.w3.org/2000/svg">
<path d="M54.8533 20.9299C54.8533 9.80804 45.8373 0.791992 34.7154 0.791992C23.5936 0.791992 14.5775 9.80804 14.5775 20.9299V50.4671C14.5775 61.589 23.5936 70.605 34.7154 70.605C45.8373 70.605 54.8533 61.589 54.8533 50.4671V20.9299Z" fill="url(#paint0_linear)"/>
<path d="M3.55533 46.1577C2.66491 46.1577 1.81096 46.5114 1.18134 47.1411C0.551716 47.7707 0.197998 48.6246 0.197998 49.515C0.197998 67.4141 13.8948 82.1746 31.3582 83.8664V97.8185H17.9329C17.4852 97.8075 17.0398 97.8861 16.623 98.0499C16.2062 98.2136 15.8263 98.459 15.5058 98.7718C15.1852 99.0845 14.9305 99.4583 14.7566 99.8709C14.5827 100.284 14.4931 100.727 14.4931 101.175C14.4931 101.623 14.5827 102.066 14.7566 102.479C14.9305 102.891 15.1852 103.265 15.5058 103.578C15.8263 103.89 16.2062 104.136 16.623 104.3C17.0398 104.463 17.4852 104.542 17.9329 104.531H51.4981C52.374 104.51 53.2067 104.147 53.8186 103.519C54.4304 102.892 54.7729 102.051 54.7729 101.175C54.7729 100.299 54.4304 99.4572 53.8186 98.8301C53.2067 98.203 52.374 97.84 51.4981 97.8185H38.0728V83.8644C55.5362 82.1705 69.233 67.412 69.233 49.513C69.2114 48.6371 68.8484 47.8044 68.2213 47.1925C67.5942 46.5807 66.7528 46.2382 65.8767 46.2382C65.0005 46.2382 64.1591 46.5807 63.532 47.1925C62.9049 47.8044 62.5419 48.6371 62.5203 49.513C62.5203 64.8429 50.0474 77.3158 34.7175 77.3158C19.3877 77.3158 6.91266 64.8449 6.91266 49.515C6.91266 48.6246 6.55894 47.7707 5.92932 47.1411C5.2997 46.5114 4.44575 46.1577 3.55533 46.1577Z" fill="url(#paint1_linear)"/>
<defs>
<linearGradient id="paint0_linear" x1="34.7154" y1="0.791992" x2="34.7154" y2="70.605" gradientUnits="userSpaceOnUse">
<stop stop-color="#83DFFF"/>
<stop offset="1" stop-color="#00AFEC"/>
</linearGradient>
<linearGradient id="paint1_linear" x1="34.7155" y1="46.1577" x2="34.7155" y2="104.532" gradientUnits="userSpaceOnUse">
<stop stop-color="#83DFFF"/>
<stop offset="1" stop-color="#00AFEC"/>
</linearGradient>
</defs>
</svg>
