<svg width="177" height="177" viewBox="0 0 177 177" fill="none" xmlns="http://www.w3.org/2000/svg">
<g filter="url(#filter0_d)">
<rect x="2" y="2" width="169" height="169" rx="30" fill="url(#paint0_linear)"/>
</g>
<path d="M106.853 53.9299C106.853 42.808 97.8374 33.792 86.7155 33.792C75.5937 33.792 66.5776 42.808 66.5776 53.9299V83.4671C66.5776 94.589 75.5937 103.605 86.7155 103.605C97.8374 103.605 106.853 94.589 106.853 83.4671V53.9299Z" fill="white"/>
<path d="M55.5554 79.1577C54.6649 79.1577 53.811 79.5114 53.1814 80.1411C52.5517 80.7707 52.198 81.6246 52.198 82.515C52.198 100.414 65.8948 115.175 83.3582 116.866V130.818H69.9329C69.4852 130.807 69.0398 130.886 68.623 131.05C68.2062 131.214 67.8263 131.459 67.5058 131.772C67.1853 132.085 66.9305 132.458 66.7566 132.871C66.5827 133.284 66.4931 133.727 66.4931 134.175C66.4931 134.623 66.5827 135.066 66.7566 135.479C66.9305 135.891 67.1853 136.265 67.5058 136.578C67.8263 136.89 68.2062 137.136 68.623 137.3C69.0398 137.463 69.4852 137.542 69.9329 137.531H103.498C104.374 137.51 105.207 137.147 105.819 136.519C106.43 135.892 106.773 135.051 106.773 134.175C106.773 133.299 106.43 132.457 105.819 131.83C105.207 131.203 104.374 130.84 103.498 130.818H90.0728V116.864C107.536 115.17 121.233 100.412 121.233 82.513C121.211 81.6371 120.848 80.8044 120.221 80.1925C119.594 79.5807 118.753 79.2382 117.877 79.2382C117.001 79.2382 116.159 79.5807 115.532 80.1925C114.905 80.8044 114.542 81.6371 114.52 82.513C114.52 97.8429 102.047 110.316 86.7175 110.316C71.3877 110.316 58.9127 97.8449 58.9127 82.515C58.9127 81.6246 58.559 80.7707 57.9293 80.1411C57.2997 79.5114 56.4458 79.1577 55.5554 79.1577Z" fill="white"/>
<defs>
<filter id="filter0_d" x="0" y="0" width="177" height="177" filterUnits="userSpaceOnUse" color-interpolation-filters="sRGB">
<feFlood flood-opacity="0" result="BackgroundImageFix"/>
<feColorMatrix in="SourceAlpha" type="matrix" values="0 0 0 0 0 0 0 0 0 0 0 0 0 0 0 0 0 0 127 0"/>
<feOffset dx="2" dy="2"/>
<feGaussianBlur stdDeviation="2"/>
<feColorMatrix type="matrix" values="0 0 0 0 0 0 0 0 0 0 0 0 0 0 0 0 0 0 0.25 0"/>
<feBlend mode="normal" in2="BackgroundImageFix" result="effect1_dropShadow"/>
<feBlend mode="normal" in="SourceGraphic" in2="effect1_dropShadow" result="shape"/>
</filter>
<linearGradient id="paint0_linear" x1="86.5" y1="2" x2="86.5" y2="171" gradientUnits="userSpaceOnUse">
<stop stop-color="#83DFFF"/>
<stop offset="1" stop-color="#00AFEC"/>
</linearGradient>
</defs>
</svg>
