<svg width="257" height="149" viewBox="0 0 257 149" fill="none" xmlns="http://www.w3.org/2000/svg">
<g filter="url(#filter0_d)">
<path d="M2 32C2 15.4315 15.4315 2 32 2H221C237.569 2 251 15.4315 251 32V113C251 129.569 237.569 143 221 143H2V32Z" fill="white"/>
<path d="M3.5 32C3.5 16.2599 16.2599 3.5 32 3.5H221C236.74 3.5 249.5 16.2599 249.5 32V113C249.5 128.74 236.74 141.5 221 141.5H3.5V32Z" stroke="url(#paint0_linear)" stroke-width="3"/>
</g>
<path d="M27.5522 37C29.6642 37 31.5842 36.304 33.0962 35.128C33.6722 34.672 33.7682 33.808 33.3362 33.208C32.8562 32.632 31.9682 32.536 31.4162 32.944C30.3362 33.808 29.0402 34.264 27.5522 34.264C25.8962 34.264 24.3602 33.592 23.2322 32.536C22.1522 31.48 21.4802 29.992 21.4802 28.36C21.4802 26.728 22.1522 25.288 23.2322 24.184C24.3602 23.128 25.8962 22.456 27.5522 22.456C29.0402 22.456 30.3602 22.912 31.4162 23.776C31.9682 24.208 32.8562 24.112 33.3362 23.512C33.7682 22.912 33.6722 22.072 33.0962 21.592C31.5842 20.416 29.6642 19.72 27.5522 19.72C22.7522 19.744 18.7682 23.608 18.7442 28.36C18.7682 33.136 22.7522 37 27.5522 37ZM40.4038 30.256C40.4278 28.84 41.5558 27.688 42.9718 27.664C44.4118 27.688 45.5638 28.84 45.5638 30.256V35.68C45.5638 36.424 46.1398 37 46.8838 37C47.6278 37 48.2038 36.424 48.2038 35.68V30.256C48.2038 27.376 45.8758 25 42.9718 25C42.0358 25 41.1718 25.288 40.4038 25.696V21.52C40.4038 20.776 39.8038 20.2 39.0598 20.2C38.3398 20.2 37.7398 20.776 37.7398 21.52V35.68C37.7398 35.8 37.7638 35.92 37.7878 36.016C37.9558 36.568 38.4598 37 39.0598 37C39.8038 37 40.4038 36.424 40.4038 35.68V30.256ZM57.6906 37.072C59.2746 37.072 60.7146 36.376 61.6986 35.248C62.7786 34.192 63.3786 32.704 63.3786 31.024C63.3786 29.392 62.7786 27.976 61.6986 26.824C60.7146 25.696 59.2746 25 57.6906 25C56.0346 25 54.6426 25.696 53.5626 26.824C52.5306 27.976 51.9066 29.392 51.9066 31.024C51.9066 32.704 52.5306 34.192 53.5626 35.248C54.6426 36.376 56.0346 37.072 57.6906 37.072ZM55.3866 28.528C55.9866 28 56.7786 27.616 57.6906 27.616C58.5306 27.616 59.2986 28 59.8986 28.528C60.4986 29.176 60.8346 30.04 60.8346 31.024C60.8346 32.056 60.4986 32.896 59.8986 33.568C59.2986 34.144 58.5306 34.456 57.6906 34.456C56.7786 34.456 55.9866 34.144 55.3866 33.568C54.8346 32.896 54.5226 32.056 54.5226 31.024C54.5226 30.04 54.8346 29.176 55.3866 28.528ZM68.7786 25.024C68.0586 25.024 67.4826 25.576 67.4826 26.344V35.704C67.4826 36.424 68.0586 37 68.7786 37C69.5226 37 70.0746 36.424 70.0746 35.704V26.344C70.0746 25.576 69.5226 25.024 68.7786 25.024ZM70.0746 21.496C70.0746 20.776 69.5226 20.2 68.7786 20.2C68.0586 20.2 67.4826 20.776 67.4826 21.496V22C67.4826 22.72 68.0586 23.32 68.7786 23.32C69.5226 23.32 70.0746 22.72 70.0746 22V21.496ZM73.8006 35.344C74.7606 36.112 76.2006 36.976 78.0726 37C79.2486 37 80.3286 36.64 81.1926 36.04C82.0566 35.416 82.7046 34.432 82.7046 33.256C82.7046 32.704 82.5366 32.152 82.2486 31.672C81.8406 31 81.1926 30.544 80.5446 30.256C79.8486 29.92 79.1046 29.704 78.3126 29.56H78.2886L78.2646 29.536C77.4486 29.392 76.8246 29.176 76.5126 28.96C76.3446 28.864 76.2726 28.768 76.2486 28.72C76.2006 28.648 76.2006 28.624 76.2006 28.528C76.2006 28.408 76.2726 28.192 76.5846 27.976C76.8966 27.736 77.4246 27.544 78.0246 27.544C78.7926 27.544 79.4646 27.928 80.2326 28.432C80.8326 28.84 81.6246 28.672 82.0086 28.096C82.3686 27.496 82.2006 26.704 81.6246 26.32C80.8566 25.792 79.6806 25 78.0246 25C76.9206 25 75.9126 25.312 75.0726 25.888C74.2806 26.488 73.6566 27.424 73.6566 28.528C73.6566 29.08 73.8006 29.608 74.0646 30.04C74.4966 30.688 75.0726 31.12 75.7206 31.432C76.3446 31.72 77.0646 31.912 77.8086 32.056H77.8326C78.6966 32.224 79.4166 32.488 79.7526 32.728C79.9446 32.848 80.0406 32.944 80.0646 33.016C80.1126 33.088 80.1366 33.136 80.1366 33.256C80.1366 33.448 80.0406 33.688 79.7046 33.976C79.3206 34.216 78.7206 34.432 78.0726 34.432C77.1366 34.456 76.0566 33.904 75.4326 33.376C74.9046 32.92 74.0646 32.992 73.6326 33.568C73.2006 34.096 73.2726 34.912 73.8006 35.344ZM87.3411 25.024C86.6211 25.024 86.0451 25.576 86.0451 26.344V35.704C86.0451 36.424 86.6211 37 87.3411 37C88.0851 37 88.6371 36.424 88.6371 35.704V26.344C88.6371 25.576 88.0851 25.024 87.3411 25.024ZM88.6371 21.496C88.6371 20.776 88.0851 20.2 87.3411 20.2C86.6211 20.2 86.0451 20.776 86.0451 21.496V22C86.0451 22.72 86.6211 23.32 87.3411 23.32C88.0851 23.32 88.6371 22.72 88.6371 22V21.496ZM92.3631 35.344C93.3231 36.112 94.7631 36.976 96.6351 37C97.8111 37 98.8911 36.64 99.7551 36.04C100.619 35.416 101.267 34.432 101.267 33.256C101.267 32.704 101.099 32.152 100.811 31.672C100.403 31 99.7551 30.544 99.1071 30.256C98.4111 29.92 97.6671 29.704 96.8751 29.56H96.8511L96.8271 29.536C96.0111 29.392 95.3871 29.176 95.0751 28.96C94.9071 28.864 94.8351 28.768 94.8111 28.72C94.7631 28.648 94.7631 28.624 94.7631 28.528C94.7631 28.408 94.8351 28.192 95.1471 27.976C95.4591 27.736 95.9871 27.544 96.5871 27.544C97.3551 27.544 98.0271 27.928 98.7951 28.432C99.3951 28.84 100.187 28.672 100.571 28.096C100.931 27.496 100.763 26.704 100.187 26.32C99.4191 25.792 98.2431 25 96.5871 25C95.4831 25 94.4751 25.312 93.6351 25.888C92.8431 26.488 92.2191 27.424 92.2191 28.528C92.2191 29.08 92.3631 29.608 92.6271 30.04C93.0591 30.688 93.6351 31.12 94.2831 31.432C94.9071 31.72 95.6271 31.912 96.3711 32.056H96.3951C97.2591 32.224 97.9791 32.488 98.3151 32.728C98.5071 32.848 98.6031 32.944 98.6271 33.016C98.6751 33.088 98.6991 33.136 98.6991 33.256C98.6991 33.448 98.6031 33.688 98.2671 33.976C97.8831 34.216 97.2831 34.432 96.6351 34.432C95.6991 34.456 94.6191 33.904 93.9951 33.376C93.4671 32.92 92.6271 32.992 92.1951 33.568C91.7631 34.096 91.8351 34.912 92.3631 35.344ZM115.835 25H115.235V21.52C115.235 20.776 114.659 20.2 113.915 20.2C113.171 20.2 112.571 20.776 112.571 21.52V25H111.875C111.131 25 110.555 25.576 110.555 26.32C110.555 27.04 111.131 27.64 111.875 27.64H112.571V34.336C112.571 35.8 113.771 37 115.235 37C115.979 37 116.555 36.424 116.555 35.68C116.555 34.936 115.979 34.336 115.235 34.336V27.64H115.835C116.555 27.64 117.179 27.04 117.179 26.32C117.179 25.576 116.555 25 115.835 25ZM130.814 26.296C130.814 25.576 130.238 25 129.542 25C128.918 25 128.438 25.456 128.294 26.056C127.382 25.408 126.302 25 125.102 25C123.47 25 122.054 25.696 121.022 26.8C119.99 27.88 119.39 29.368 119.39 31.024C119.39 32.656 119.99 34.144 121.022 35.248C122.054 36.328 123.47 37 125.102 37C126.302 37 127.382 36.616 128.294 35.968C128.438 36.544 128.918 37 129.542 37C130.238 37 130.814 36.424 130.814 35.728V31.024V26.296ZM127.334 33.496C126.758 34.096 125.942 34.432 125.102 34.432C124.238 34.432 123.422 34.096 122.87 33.496C122.294 32.872 121.958 32.008 121.958 31.024C121.958 30.016 122.294 29.152 122.87 28.552C123.422 27.904 124.238 27.568 125.102 27.568C125.942 27.568 126.758 27.904 127.334 28.552C127.91 29.152 128.27 30.016 128.27 31.024C128.27 32.008 127.91 32.872 127.334 33.496ZM147.972 37C149.412 37 150.756 36.472 151.788 35.728C152.34 35.248 152.436 34.48 152.052 33.952C151.572 33.376 150.78 33.28 150.252 33.688C149.628 34.144 148.836 34.456 147.972 34.456C146.028 34.456 144.42 32.872 144.42 31.024C144.42 29.176 146.028 27.568 147.972 27.568C148.86 27.568 149.628 27.88 150.252 28.336C150.804 28.768 151.572 28.672 152.052 28.096C152.436 27.568 152.34 26.752 151.788 26.32C150.756 25.528 149.412 25 147.972 25C144.66 25.024 141.876 27.688 141.876 31.024C141.876 34.312 144.66 37 147.972 37ZM156.595 21.52V35.68C156.595 36.4 157.195 37 157.915 37C158.659 37 159.259 36.4 159.259 35.68V21.52C159.259 20.8 158.659 20.2 157.915 20.2C157.195 20.2 156.595 20.8 156.595 21.52ZM172.556 26.296C172.556 25.576 171.98 25 171.284 25C170.66 25 170.18 25.456 170.036 26.056C169.124 25.408 168.044 25 166.844 25C165.212 25 163.796 25.696 162.764 26.8C161.732 27.88 161.132 29.368 161.132 31.024C161.132 32.656 161.732 34.144 162.764 35.248C163.796 36.328 165.212 37 166.844 37C168.044 37 169.124 36.616 170.036 35.968C170.18 36.544 170.66 37 171.284 37C171.98 37 172.556 36.424 172.556 35.728V31.024V26.296ZM169.076 33.496C168.5 34.096 167.684 34.432 166.844 34.432C165.98 34.432 165.164 34.096 164.612 33.496C164.036 32.872 163.7 32.008 163.7 31.024C163.7 30.016 164.036 29.152 164.612 28.552C165.164 27.904 165.98 27.568 166.844 27.568C167.684 27.568 168.5 27.904 169.076 28.552C169.652 29.152 170.012 30.016 170.012 31.024C170.012 32.008 169.652 32.872 169.076 33.496ZM176.855 35.344C177.815 36.112 179.255 36.976 181.127 37C182.303 37 183.383 36.64 184.247 36.04C185.111 35.416 185.759 34.432 185.759 33.256C185.759 32.704 185.591 32.152 185.303 31.672C184.895 31 184.247 30.544 183.599 30.256C182.903 29.92 182.159 29.704 181.367 29.56H181.343L181.319 29.536C180.503 29.392 179.879 29.176 179.567 28.96C179.399 28.864 179.327 28.768 179.303 28.72C179.255 28.648 179.255 28.624 179.255 28.528C179.255 28.408 179.327 28.192 179.639 27.976C179.951 27.736 180.479 27.544 181.079 27.544C181.847 27.544 182.519 27.928 183.287 28.432C183.887 28.84 184.679 28.672 185.063 28.096C185.423 27.496 185.255 26.704 184.679 26.32C183.911 25.792 182.735 25 181.079 25C179.975 25 178.967 25.312 178.127 25.888C177.335 26.488 176.711 27.424 176.711 28.528C176.711 29.08 176.855 29.608 177.119 30.04C177.551 30.688 178.127 31.12 178.775 31.432C179.399 31.72 180.119 31.912 180.863 32.056H180.887C181.751 32.224 182.471 32.488 182.807 32.728C182.999 32.848 183.095 32.944 183.119 33.016C183.167 33.088 183.191 33.136 183.191 33.256C183.191 33.448 183.095 33.688 182.759 33.976C182.375 34.216 181.775 34.432 181.127 34.432C180.191 34.456 179.111 33.904 178.487 33.376C177.959 32.92 177.119 32.992 176.687 33.568C176.255 34.096 176.327 34.912 176.855 35.344ZM188.433 35.344C189.393 36.112 190.833 36.976 192.705 37C193.881 37 194.961 36.64 195.825 36.04C196.689 35.416 197.337 34.432 197.337 33.256C197.337 32.704 197.169 32.152 196.881 31.672C196.473 31 195.825 30.544 195.177 30.256C194.481 29.92 193.737 29.704 192.945 29.56H192.921L192.897 29.536C192.081 29.392 191.457 29.176 191.145 28.96C190.977 28.864 190.905 28.768 190.881 28.72C190.833 28.648 190.833 28.624 190.833 28.528C190.833 28.408 190.905 28.192 191.217 27.976C191.529 27.736 192.057 27.544 192.657 27.544C193.425 27.544 194.097 27.928 194.865 28.432C195.465 28.84 196.257 28.672 196.641 28.096C197.001 27.496 196.833 26.704 196.257 26.32C195.489 25.792 194.313 25 192.657 25C191.553 25 190.545 25.312 189.705 25.888C188.913 26.488 188.289 27.424 188.289 28.528C188.289 29.08 188.433 29.608 188.697 30.04C189.129 30.688 189.705 31.12 190.353 31.432C190.977 31.72 191.697 31.912 192.441 32.056H192.465C193.329 32.224 194.049 32.488 194.385 32.728C194.577 32.848 194.673 32.944 194.697 33.016C194.745 33.088 194.769 33.136 194.769 33.256C194.769 33.448 194.673 33.688 194.337 33.976C193.953 34.216 193.353 34.432 192.705 34.432C191.769 34.456 190.689 33.904 190.065 33.376C189.537 32.92 188.697 32.992 188.265 33.568C187.833 34.096 187.905 34.912 188.433 35.344ZM205.67 37C207.374 37 208.79 36.496 209.966 35.416C210.518 34.912 210.278 34.192 209.966 33.856C209.654 33.472 208.67 33.4 208.166 33.928C207.566 34.384 206.534 34.6 205.67 34.528C204.83 34.456 203.87 34.024 203.366 33.448C202.934 33.04 202.67 32.416 202.55 31.864H210.182C210.854 31.864 211.358 31.48 211.43 30.904C211.454 30.856 211.454 30.736 211.454 30.688C211.454 30.64 211.454 30.592 211.454 30.568C211.262 27.328 208.79 25 205.67 25C202.382 25 199.838 27.736 199.814 31C199.838 34.264 202.382 36.976 205.67 37ZM205.67 27.28C207.758 27.448 208.982 28.864 209.222 29.824H202.43C202.622 28.84 203.63 27.376 205.67 27.28ZM222.33 35.392C222.33 36.376 223.122 37.168 224.106 37.168C225.09 37.168 225.906 36.376 225.906 35.392C225.906 34.408 225.09 33.592 224.106 33.592C223.122 33.592 222.33 34.408 222.33 35.392ZM222.33 25.84C222.33 26.824 223.122 27.616 224.106 27.616C225.09 27.616 225.906 26.824 225.906 25.84C225.906 24.856 225.09 24.04 224.106 24.04C223.122 24.04 222.33 24.856 222.33 25.84ZM39.9367 65.072C41.5207 65.072 42.9607 64.376 43.9447 63.248C45.0247 62.192 45.6247 60.704 45.6247 59.024C45.6247 57.392 45.0247 55.976 43.9447 54.824C42.9607 53.696 41.5207 53 39.9367 53C38.2807 53 36.8887 53.696 35.8087 54.824C34.7767 55.976 34.1527 57.392 34.1527 59.024C34.1527 60.704 34.7767 62.192 35.8087 63.248C36.8887 64.376 38.2807 65.072 39.9367 65.072ZM37.6327 56.528C38.2327 56 39.0247 55.616 39.9367 55.616C40.7767 55.616 41.5447 56 42.1447 56.528C42.7447 57.176 43.0807 58.04 43.0807 59.024C43.0807 60.056 42.7447 60.896 42.1447 61.568C41.5447 62.144 40.7767 62.456 39.9367 62.456C39.0247 62.456 38.2327 62.144 37.6327 61.568C37.0807 60.896 36.7687 60.056 36.7687 59.024C36.7687 58.04 37.0807 57.176 37.6327 56.528ZM55.3559 53.024C54.1559 53 53.1239 53.432 52.3319 53.96C52.1639 54.08 51.9719 54.272 51.8279 54.44V54.272C51.8279 53.576 51.2279 53.024 50.5079 53.024C49.8119 53.024 49.2359 53.576 49.2359 54.272V63.728C49.2359 64.424 49.8119 65 50.5079 65C51.2279 65 51.8279 64.424 51.8279 63.728V59.168C51.9479 58.832 52.2359 57.92 52.8119 57.152C53.0999 56.696 53.4599 56.288 53.9159 56C54.3239 55.688 54.8039 55.544 55.3559 55.544C56.0759 55.544 56.6279 54.944 56.6279 54.272C56.6279 53.576 56.0759 53.024 55.3559 53.024ZM69.3254 54.296C69.3254 53.576 68.7494 53 68.0534 53C67.4294 53 66.9494 53.456 66.8054 54.056C65.8934 53.408 64.8134 53 63.6134 53C61.9814 53 60.5654 53.696 59.5334 54.8C58.5014 55.88 57.9014 57.368 57.9014 59.024C57.9014 60.656 58.5014 62.144 59.5334 63.248C60.5654 64.328 61.9814 65 63.6134 65C64.8134 65 65.8934 64.616 66.8054 63.968C66.9494 64.544 67.4294 65 68.0534 65C68.7494 65 69.3254 64.424 69.3254 63.728V59.024V54.296ZM65.8454 61.496C65.2694 62.096 64.4534 62.432 63.6134 62.432C62.7494 62.432 61.9334 62.096 61.3814 61.496C60.8054 60.872 60.4694 60.008 60.4694 59.024C60.4694 58.016 60.8054 57.152 61.3814 56.552C61.9334 55.904 62.7494 55.568 63.6134 55.568C64.4534 55.568 65.2694 55.904 65.8454 56.552C66.4214 57.152 66.7814 58.016 66.7814 59.024C66.7814 60.008 66.4214 60.872 65.8454 61.496ZM78.7904 53C77.8544 53 76.9664 53.288 76.2464 53.744C76.0304 53.288 75.5744 53 75.0704 53C74.3504 53 73.7984 53.576 73.7984 54.272V57.992V63.728C73.7984 64.424 74.3504 65 75.0704 65C75.6944 65 76.2224 64.544 76.3424 63.968C76.3904 63.872 76.3904 63.8 76.3904 63.728V57.992C76.3904 56.648 77.4464 55.568 78.7904 55.568C80.1584 55.568 81.2864 56.648 81.2864 57.992V63.728C81.2864 64.424 81.8864 65 82.5584 65C83.2544 65 83.8064 64.424 83.8064 63.728V57.992C83.8064 55.28 81.5744 53 78.7904 53ZM99.2452 59.048V54.272C99.2452 53.576 98.6932 53 97.9732 53C97.3492 53 96.8212 53.432 96.7012 54.008C95.8372 53.384 94.7332 53 93.4852 53C91.9012 53 90.4372 53.696 89.4052 54.776C88.3732 55.904 87.7252 57.392 87.7252 59.048C87.7252 60.728 88.3732 62.216 89.4052 63.272C90.4372 64.4 91.9012 65.096 93.4852 65.096C94.6612 65.096 95.7652 64.736 96.6292 64.136C96.3172 65.6 95.0452 66.704 93.4852 66.704C92.9812 66.704 92.5252 66.584 92.1172 66.368C91.4452 66.08 90.7012 66.32 90.3892 66.968C90.0532 67.616 90.3412 68.408 90.9652 68.696C91.7092 69.08 92.5972 69.296 93.4852 69.296C96.6772 69.296 99.2452 66.68 99.2452 63.536V59.072V59.048ZM95.7652 61.52C95.1412 62.168 94.3972 62.504 93.4852 62.504C92.6452 62.504 91.8532 62.168 91.2772 61.52C90.7012 60.968 90.3172 60.056 90.3172 59.048C90.3172 58.088 90.7012 57.176 91.2772 56.6C91.8532 55.928 92.6452 55.568 93.4852 55.568C94.3972 55.568 95.1412 55.928 95.7652 56.6C96.2932 57.176 96.6772 58.088 96.6772 59.048C96.6772 60.056 96.2932 60.968 95.7652 61.52ZM109.377 65C111.081 65 112.497 64.496 113.673 63.416C114.225 62.912 113.985 62.192 113.673 61.856C113.361 61.472 112.377 61.4 111.873 61.928C111.273 62.384 110.241 62.6 109.377 62.528C108.537 62.456 107.577 62.024 107.073 61.448C106.641 61.04 106.377 60.416 106.257 59.864H113.889C114.561 59.864 115.065 59.48 115.137 58.904C115.161 58.856 115.161 58.736 115.161 58.688C115.161 58.64 115.161 58.592 115.161 58.568C114.969 55.328 112.497 53 109.377 53C106.089 53 103.545 55.736 103.521 59C103.545 62.264 106.089 64.976 109.377 65ZM109.377 55.28C111.465 55.448 112.689 56.864 112.929 57.824H106.137C106.329 56.84 107.337 55.376 109.377 55.28ZM127.453 69.512C128.221 69.512 128.821 68.888 128.821 68.216V63.992C129.685 64.616 130.837 64.976 132.037 64.976C135.229 64.976 137.845 62.312 137.845 59.024C137.845 55.736 135.229 53 132.037 53C130.813 53 129.661 53.408 128.773 53.984C128.677 53.456 128.125 53 127.453 53C126.757 53 126.181 53.576 126.181 54.272V59.024C126.181 59.048 126.181 59.048 126.181 59.048V68.216C126.181 68.888 126.757 69.512 127.453 69.512ZM129.757 56.6C130.357 55.952 131.149 55.616 132.037 55.616C132.853 55.616 133.669 55.952 134.293 56.6C134.845 57.224 135.229 58.088 135.229 59.024C135.229 59.96 134.845 60.872 134.293 61.424C133.669 62.096 132.853 62.432 132.037 62.432C131.149 62.432 130.357 62.096 129.757 61.424C129.133 60.872 128.821 59.96 128.821 59.024C128.821 58.088 129.133 57.224 129.757 56.6ZM147.257 65.072C148.841 65.072 150.281 64.376 151.265 63.248C152.345 62.192 152.945 60.704 152.945 59.024C152.945 57.392 152.345 55.976 151.265 54.824C150.281 53.696 148.841 53 147.257 53C145.601 53 144.209 53.696 143.129 54.824C142.097 55.976 141.473 57.392 141.473 59.024C141.473 60.704 142.097 62.192 143.129 63.248C144.209 64.376 145.601 65.072 147.257 65.072ZM144.953 56.528C145.553 56 146.345 55.616 147.257 55.616C148.097 55.616 148.865 56 149.465 56.528C150.065 57.176 150.401 58.04 150.401 59.024C150.401 60.056 150.065 60.896 149.465 61.568C148.865 62.144 148.097 62.456 147.257 62.456C146.345 62.456 145.553 62.144 144.953 61.568C144.401 60.896 144.089 60.056 144.089 59.024C144.089 58.04 144.401 57.176 144.953 56.528ZM166.466 60.008V54.272C166.466 53.6 165.842 53 165.17 53C164.45 53 163.922 53.6 163.922 54.272V60.008C163.898 61.376 162.794 62.456 161.402 62.456C160.034 62.456 158.954 61.376 158.954 60.008V54.272C158.954 53.6 158.402 53 157.682 53C156.986 53 156.41 53.6 156.41 54.272V60.008C156.41 62.744 158.666 65 161.402 65C164.162 65 166.466 62.744 166.466 60.008ZM177.489 53.024C176.289 53 175.257 53.432 174.465 53.96C174.297 54.08 174.105 54.272 173.961 54.44V54.272C173.961 53.576 173.361 53.024 172.641 53.024C171.945 53.024 171.369 53.576 171.369 54.272V63.728C171.369 64.424 171.945 65 172.641 65C173.361 65 173.961 64.424 173.961 63.728V59.168C174.081 58.832 174.369 57.92 174.945 57.152C175.233 56.696 175.593 56.288 176.049 56C176.457 55.688 176.937 55.544 177.489 55.544C178.209 55.544 178.761 54.944 178.761 54.272C178.761 53.576 178.209 53.024 177.489 53.024ZM197.439 65C199.551 65 201.471 64.304 202.983 63.128C203.559 62.672 203.655 61.808 203.223 61.208C202.743 60.632 201.855 60.536 201.303 60.944C200.223 61.808 198.927 62.264 197.439 62.264C195.783 62.264 194.247 61.592 193.119 60.536C192.039 59.48 191.367 57.992 191.367 56.36C191.367 54.728 192.039 53.288 193.119 52.184C194.247 51.128 195.783 50.456 197.439 50.456C198.927 50.456 200.247 50.912 201.303 51.776C201.855 52.208 202.743 52.112 203.223 51.512C203.655 50.912 203.559 50.072 202.983 49.592C201.471 48.416 199.551 47.72 197.439 47.72C192.639 47.744 188.655 51.608 188.631 56.36C188.655 61.136 192.639 65 197.439 65ZM218.667 53.36C218.667 50.504 216.363 48.2 213.507 48.2H209.235H209.211C208.491 48.2 207.891 48.776 207.891 49.52V63.68C207.891 64.4 208.491 65 209.211 65C209.955 65 210.555 64.4 210.555 63.68V58.472H213.507C216.363 58.472 218.667 56.168 218.667 53.36ZM210.555 50.864H213.507C214.899 50.864 215.979 51.968 216.003 53.36C215.979 54.704 214.899 55.808 213.507 55.808H210.555V50.864ZM218.292 67.808C218.292 68.168 218.532 68.48 219.036 68.48C219.708 68.48 220.644 68.072 221.292 67.448C222.036 66.68 222.468 65.576 222.468 63.944V63.68C222.468 62.384 221.82 61.568 220.74 61.568C219.756 61.568 219.108 62.264 219.108 63.176V63.368C219.108 64.232 219.78 64.808 220.476 65C220.524 66.056 219.948 66.8 218.844 67.16C218.532 67.232 218.292 67.472 218.292 67.808ZM30.5211 91.704C30.5211 92.4 31.0971 93 31.8171 93C32.4651 93 32.9691 92.544 33.0891 91.968C34.0011 92.592 35.1531 93 36.3531 93C39.5931 93 42.1851 90.264 42.1851 87.024C42.1851 83.736 39.5931 81 36.3531 81C35.1771 81 34.0251 81.384 33.1371 82.008V77.496C33.1371 76.8 32.5611 76.2 31.8171 76.2C31.0971 76.2 30.5211 76.8 30.5211 77.496V87C30.5211 87 30.5211 87 30.5211 87.024V91.704ZM34.0971 84.6C34.6971 83.976 35.4651 83.616 36.3531 83.616C37.2171 83.616 38.0091 83.976 38.6091 84.6C39.2091 85.2 39.5691 86.064 39.5691 87.024C39.5691 87.936 39.2091 88.8 38.6091 89.4C38.0091 90.024 37.2171 90.384 36.3531 90.384C35.4651 90.384 34.6971 90.024 34.0971 89.4C33.4971 88.8 33.1371 87.936 33.1371 87.024C33.1371 86.064 33.4971 85.2 34.0971 84.6ZM46.5328 77.52V91.68C46.5328 92.4 47.1328 93 47.8528 93C48.5968 93 49.1968 92.4 49.1968 91.68V77.52C49.1968 76.8 48.5968 76.2 47.8528 76.2C47.1328 76.2 46.5328 76.8 46.5328 77.52ZM58.4355 93C60.1395 93 61.5555 92.496 62.7315 91.416C63.2835 90.912 63.0435 90.192 62.7315 89.856C62.4195 89.472 61.4355 89.4 60.9315 89.928C60.3315 90.384 59.2995 90.6 58.4355 90.528C57.5955 90.456 56.6355 90.024 56.1315 89.448C55.6995 89.04 55.4355 88.416 55.3155 87.864H62.9475C63.6195 87.864 64.1235 87.48 64.1955 86.904C64.2195 86.856 64.2195 86.736 64.2195 86.688C64.2195 86.64 64.2195 86.592 64.2195 86.568C64.0275 83.328 61.5555 81 58.4355 81C55.1475 81 52.6035 83.736 52.5795 87C52.6035 90.264 55.1475 92.976 58.4355 93ZM58.4355 83.28C60.5235 83.448 61.7475 84.864 61.9875 85.824H55.1955C55.3875 84.84 56.3955 83.376 58.4355 83.28ZM77.8605 88.008V82.272C77.8605 81.6 77.2365 81 76.5645 81C75.8445 81 75.3165 81.6 75.3165 82.272V88.008C75.2925 89.376 74.1885 90.456 72.7965 90.456C71.4285 90.456 70.3485 89.376 70.3485 88.008V82.272C70.3485 81.6 69.7965 81 69.0765 81C68.3805 81 67.8045 81.6 67.8045 82.272V88.008C67.8045 90.744 70.0605 93 72.7965 93C75.5565 93 77.8605 90.744 77.8605 88.008ZM91.2306 97.512C91.9986 97.512 92.5986 96.888 92.5986 96.216V91.992C93.4626 92.616 94.6146 92.976 95.8146 92.976C99.0066 92.976 101.623 90.312 101.623 87.024C101.623 83.736 99.0066 81 95.8146 81C94.5906 81 93.4386 81.408 92.5506 81.984C92.4546 81.456 91.9026 81 91.2306 81C90.5346 81 89.9586 81.576 89.9586 82.272V87.024C89.9586 87.048 89.9586 87.048 89.9586 87.048V96.216C89.9586 96.888 90.5346 97.512 91.2306 97.512ZM93.5346 84.6C94.1346 83.952 94.9266 83.616 95.8146 83.616C96.6306 83.616 97.4466 83.952 98.0706 84.6C98.6226 85.224 99.0066 86.088 99.0066 87.024C99.0066 87.96 98.6226 88.872 98.0706 89.424C97.4466 90.096 96.6306 90.432 95.8146 90.432C94.9266 90.432 94.1346 90.096 93.5346 89.424C92.9106 88.872 92.5986 87.96 92.5986 87.024C92.5986 86.088 92.9106 85.224 93.5346 84.6ZM111.034 93.072C112.618 93.072 114.058 92.376 115.042 91.248C116.122 90.192 116.722 88.704 116.722 87.024C116.722 85.392 116.122 83.976 115.042 82.824C114.058 81.696 112.618 81 111.034 81C109.378 81 107.986 81.696 106.906 82.824C105.874 83.976 105.25 85.392 105.25 87.024C105.25 88.704 105.874 90.192 106.906 91.248C107.986 92.376 109.378 93.072 111.034 93.072ZM108.73 84.528C109.33 84 110.122 83.616 111.034 83.616C111.874 83.616 112.642 84 113.242 84.528C113.842 85.176 114.178 86.04 114.178 87.024C114.178 88.056 113.842 88.896 113.242 89.568C112.642 90.144 111.874 90.456 111.034 90.456C110.122 90.456 109.33 90.144 108.73 89.568C108.178 88.896 107.866 88.056 107.866 87.024C107.866 86.04 108.178 85.176 108.73 84.528ZM130.243 88.008V82.272C130.243 81.6 129.619 81 128.947 81C128.227 81 127.699 81.6 127.699 82.272V88.008C127.675 89.376 126.571 90.456 125.179 90.456C123.811 90.456 122.731 89.376 122.731 88.008V82.272C122.731 81.6 122.179 81 121.459 81C120.763 81 120.187 81.6 120.187 82.272V88.008C120.187 90.744 122.443 93 125.179 93C127.939 93 130.243 90.744 130.243 88.008ZM141.266 81.024C140.066 81 139.034 81.432 138.242 81.96C138.074 82.08 137.882 82.272 137.738 82.44V82.272C137.738 81.576 137.138 81.024 136.418 81.024C135.722 81.024 135.146 81.576 135.146 82.272V91.728C135.146 92.424 135.722 93 136.418 93C137.138 93 137.738 92.424 137.738 91.728V87.168C137.858 86.832 138.146 85.92 138.722 85.152C139.01 84.696 139.37 84.288 139.826 84C140.234 83.688 140.714 83.544 141.266 83.544C141.986 83.544 142.538 82.944 142.538 82.272C142.538 81.576 141.986 81.024 141.266 81.024ZM166.021 93C168.133 93 170.053 92.304 171.565 91.128C172.141 90.672 172.237 89.808 171.805 89.208C171.325 88.632 170.437 88.536 169.885 88.944C168.805 89.808 167.509 90.264 166.021 90.264C164.365 90.264 162.829 89.592 161.701 88.536C160.621 87.48 159.949 85.992 159.949 84.36C159.949 82.728 160.621 81.288 161.701 80.184C162.829 79.128 164.365 78.456 166.021 78.456C167.509 78.456 168.829 78.912 169.885 79.776C170.437 80.208 171.325 80.112 171.805 79.512C172.237 78.912 172.141 78.072 171.565 77.592C170.053 76.416 168.133 75.72 166.021 75.72C161.221 75.744 157.237 79.608 157.213 84.36C157.237 89.136 161.221 93 166.021 93ZM177.793 93L177.817 92.976C177.817 92.976 177.817 93 177.865 93H185.641C186.337 93 186.961 92.4 186.961 91.68C186.961 90.936 186.337 90.336 185.641 90.336H179.137V85.92H184.729C185.449 85.92 186.049 85.32 186.049 84.576C186.049 83.88 185.449 83.256 184.729 83.256H179.137V78.864H185.641C186.337 78.864 186.961 78.264 186.961 77.52C186.961 76.776 186.337 76.2 185.641 76.2H177.865C177.817 76.2 177.817 76.2 177.817 76.2H177.793C177.049 76.2 176.473 76.776 176.473 77.52V91.68C176.473 92.4 177.049 93 177.793 93ZM194.755 77.448C194.707 77.4 194.707 77.352 194.707 77.28C194.707 77.256 194.683 77.208 194.683 77.16C194.659 77.136 194.659 77.088 194.635 77.04C194.635 76.992 194.611 76.968 194.587 76.92C194.587 76.896 194.563 76.872 194.563 76.848L194.539 76.8C194.515 76.776 194.467 76.728 194.443 76.704C194.419 76.656 194.395 76.632 194.371 76.608C194.347 76.584 194.323 76.536 194.275 76.512C194.251 76.488 194.203 76.464 194.179 76.44C194.131 76.416 194.107 76.392 194.083 76.368C194.035 76.368 194.011 76.344 193.939 76.296C193.915 76.272 193.867 76.272 193.843 76.272C193.795 76.248 193.771 76.224 193.699 76.224C193.675 76.224 193.627 76.224 193.603 76.2C193.555 76.2 193.507 76.2 193.435 76.2H193.411C193.387 76.2 193.363 76.2 193.339 76.2C193.291 76.2 193.219 76.2 193.171 76.224C193.147 76.224 193.099 76.224 193.075 76.248C193.027 76.248 192.979 76.272 192.931 76.272C192.883 76.296 192.859 76.344 192.811 76.344C192.787 76.368 192.739 76.368 192.715 76.392L189.763 78.144C189.139 78.504 188.923 79.344 189.331 79.944C189.571 80.376 190.003 80.616 190.459 80.616C190.675 80.616 190.915 80.568 191.131 80.424L192.091 79.872V91.68C192.091 92.424 192.667 93 193.411 93C194.131 93 194.755 92.424 194.755 91.68V77.52C194.755 77.496 194.755 77.472 194.755 77.448ZM210.686 93C212.39 93 213.806 92.496 214.982 91.416C215.534 90.912 215.294 90.192 214.982 89.856C214.67 89.472 213.686 89.4 213.182 89.928C212.582 90.384 211.55 90.6 210.686 90.528C209.846 90.456 208.886 90.024 208.382 89.448C207.95 89.04 207.686 88.416 207.566 87.864H215.198C215.87 87.864 216.374 87.48 216.446 86.904C216.47 86.856 216.47 86.736 216.47 86.688C216.47 86.64 216.47 86.592 216.47 86.568C216.278 83.328 213.806 81 210.686 81C207.398 81 204.854 83.736 204.83 87C204.854 90.264 207.398 92.976 210.686 93ZM210.686 83.28C212.774 83.448 213.998 84.864 214.238 85.824H207.446C207.638 84.84 208.646 83.376 210.686 83.28ZM223.39 81H222.79V77.52C222.79 76.776 222.214 76.2 221.47 76.2C220.726 76.2 220.126 76.776 220.126 77.52V81H219.43C218.686 81 218.11 81.576 218.11 82.32C218.11 83.04 218.686 83.64 219.43 83.64H220.126V90.336C220.126 91.8 221.326 93 222.79 93C223.534 93 224.11 92.424 224.11 91.68C224.11 90.936 223.534 90.336 222.79 90.336V83.64H223.39C224.11 83.64 224.734 83.04 224.734 82.32C224.734 81.576 224.11 81 223.39 81ZM51.6528 109.024C50.4528 109 49.4208 109.432 48.6288 109.96C48.4608 110.08 48.2688 110.272 48.1248 110.44V110.272C48.1248 109.576 47.5248 109.024 46.8048 109.024C46.1088 109.024 45.5328 109.576 45.5328 110.272V119.728C45.5328 120.424 46.1088 121 46.8048 121C47.5248 121 48.1248 120.424 48.1248 119.728V115.168C48.2448 114.832 48.5328 113.92 49.1088 113.152C49.3968 112.696 49.7568 112.288 50.2128 112C50.6208 111.688 51.1008 111.544 51.6528 111.544C52.3728 111.544 52.9248 110.944 52.9248 110.272C52.9248 109.576 52.3728 109.024 51.6528 109.024ZM60.7023 121.072C62.2863 121.072 63.7263 120.376 64.7103 119.248C65.7903 118.192 66.3903 116.704 66.3903 115.024C66.3903 113.392 65.7903 111.976 64.7103 110.824C63.7263 109.696 62.2863 109 60.7023 109C59.0463 109 57.6543 109.696 56.5743 110.824C55.5423 111.976 54.9183 113.392 54.9183 115.024C54.9183 116.704 55.5423 118.192 56.5743 119.248C57.6543 120.376 59.0463 121.072 60.7023 121.072ZM58.3983 112.528C58.9983 112 59.7903 111.616 60.7023 111.616C61.5423 111.616 62.3103 112 62.9103 112.528C63.5103 113.176 63.8463 114.04 63.8463 115.024C63.8463 116.056 63.5103 116.896 62.9103 117.568C62.3103 118.144 61.5423 118.456 60.7023 118.456C59.7903 118.456 58.9983 118.144 58.3983 117.568C57.8463 116.896 57.5343 116.056 57.5343 115.024C57.5343 114.04 57.8463 113.176 58.3983 112.528ZM70.0623 119.344C71.0223 120.112 72.4623 120.976 74.3343 121C75.5103 121 76.5903 120.64 77.4543 120.04C78.3183 119.416 78.9663 118.432 78.9663 117.256C78.9663 116.704 78.7983 116.152 78.5103 115.672C78.1023 115 77.4543 114.544 76.8063 114.256C76.1103 113.92 75.3663 113.704 74.5743 113.56H74.5503L74.5263 113.536C73.7103 113.392 73.0863 113.176 72.7743 112.96C72.6063 112.864 72.5343 112.768 72.5103 112.72C72.4623 112.648 72.4623 112.624 72.4623 112.528C72.4623 112.408 72.5343 112.192 72.8463 111.976C73.1583 111.736 73.6863 111.544 74.2863 111.544C75.0543 111.544 75.7263 111.928 76.4943 112.432C77.0943 112.84 77.8863 112.672 78.2703 112.096C78.6303 111.496 78.4623 110.704 77.8863 110.32C77.1183 109.792 75.9423 109 74.2863 109C73.1823 109 72.1743 109.312 71.3343 109.888C70.5423 110.488 69.9183 111.424 69.9183 112.528C69.9183 113.08 70.0623 113.608 70.3263 114.04C70.7583 114.688 71.3343 115.12 71.9823 115.432C72.6063 115.72 73.3263 115.912 74.0703 116.056H74.0943C74.9583 116.224 75.6783 116.488 76.0143 116.728C76.2063 116.848 76.3023 116.944 76.3263 117.016C76.3743 117.088 76.3983 117.136 76.3983 117.256C76.3983 117.448 76.3023 117.688 75.9663 117.976C75.5823 118.216 74.9823 118.432 74.3343 118.432C73.3983 118.456 72.3183 117.904 71.6943 117.376C71.1663 116.92 70.3263 116.992 69.8943 117.568C69.4623 118.096 69.5343 118.912 70.0623 119.344ZM87.2988 121C89.0028 121 90.4188 120.496 91.5948 119.416C92.1468 118.912 91.9068 118.192 91.5948 117.856C91.2828 117.472 90.2988 117.4 89.7948 117.928C89.1948 118.384 88.1628 118.6 87.2988 118.528C86.4588 118.456 85.4988 118.024 84.9948 117.448C84.5628 117.04 84.2988 116.416 84.1788 115.864H91.8108C92.4828 115.864 92.9868 115.48 93.0588 114.904C93.0828 114.856 93.0828 114.736 93.0828 114.688C93.0828 114.64 93.0828 114.592 93.0828 114.568C92.8908 111.328 90.4188 109 87.2988 109C84.0108 109 81.4668 111.736 81.4428 115C81.4668 118.264 84.0108 120.976 87.2988 121ZM87.2988 111.28C89.3868 111.448 90.6108 112.864 90.8508 113.824H84.0588C84.2508 112.84 85.2588 111.376 87.2988 111.28ZM105.375 125.512C106.143 125.512 106.743 124.888 106.743 124.216V119.992C107.607 120.616 108.759 120.976 109.959 120.976C113.151 120.976 115.767 118.312 115.767 115.024C115.767 111.736 113.151 109 109.959 109C108.735 109 107.583 109.408 106.695 109.984C106.599 109.456 106.047 109 105.375 109C104.679 109 104.103 109.576 104.103 110.272V115.024C104.103 115.048 104.103 115.048 104.103 115.048V124.216C104.103 124.888 104.679 125.512 105.375 125.512ZM107.679 112.6C108.279 111.952 109.071 111.616 109.959 111.616C110.775 111.616 111.591 111.952 112.215 112.6C112.767 113.224 113.151 114.088 113.151 115.024C113.151 115.96 112.767 116.872 112.215 117.424C111.591 118.096 110.775 118.432 109.959 118.432C109.071 118.432 108.279 118.096 107.679 117.424C107.055 116.872 106.743 115.96 106.743 115.024C106.743 114.088 107.055 113.224 107.679 112.6ZM125.179 121.072C126.763 121.072 128.203 120.376 129.187 119.248C130.267 118.192 130.867 116.704 130.867 115.024C130.867 113.392 130.267 111.976 129.187 110.824C128.203 109.696 126.763 109 125.179 109C123.523 109 122.131 109.696 121.051 110.824C120.019 111.976 119.395 113.392 119.395 115.024C119.395 116.704 120.019 118.192 121.051 119.248C122.131 120.376 123.523 121.072 125.179 121.072ZM122.875 112.528C123.475 112 124.267 111.616 125.179 111.616C126.019 111.616 126.787 112 127.387 112.528C127.987 113.176 128.323 114.04 128.323 115.024C128.323 116.056 127.987 116.896 127.387 117.568C126.787 118.144 126.019 118.456 125.179 118.456C124.267 118.456 123.475 118.144 122.875 117.568C122.323 116.896 122.011 116.056 122.011 115.024C122.011 114.04 122.323 113.176 122.875 112.528ZM144.388 116.008V110.272C144.388 109.6 143.764 109 143.092 109C142.372 109 141.844 109.6 141.844 110.272V116.008C141.82 117.376 140.716 118.456 139.324 118.456C137.956 118.456 136.876 117.376 136.876 116.008V110.272C136.876 109.6 136.324 109 135.604 109C134.908 109 134.332 109.6 134.332 110.272V116.008C134.332 118.744 136.588 121 139.324 121C142.084 121 144.388 118.744 144.388 116.008ZM155.411 109.024C154.211 109 153.179 109.432 152.387 109.96C152.219 110.08 152.027 110.272 151.883 110.44V110.272C151.883 109.576 151.283 109.024 150.563 109.024C149.867 109.024 149.291 109.576 149.291 110.272V119.728C149.291 120.424 149.867 121 150.563 121C151.283 121 151.883 120.424 151.883 119.728V115.168C152.003 114.832 152.291 113.92 152.867 113.152C153.155 112.696 153.515 112.288 153.971 112C154.379 111.688 154.859 111.544 155.411 111.544C156.131 111.544 156.683 110.944 156.683 110.272C156.683 109.576 156.131 109.024 155.411 109.024ZM175.361 121C177.473 121 179.393 120.304 180.905 119.128C181.481 118.672 181.577 117.808 181.145 117.208C180.665 116.632 179.777 116.536 179.225 116.944C178.145 117.808 176.849 118.264 175.361 118.264C173.705 118.264 172.169 117.592 171.041 116.536C169.961 115.48 169.289 113.992 169.289 112.36C169.289 110.728 169.961 109.288 171.041 108.184C172.169 107.128 173.705 106.456 175.361 106.456C176.849 106.456 178.169 106.912 179.225 107.776C179.777 108.208 180.665 108.112 181.145 107.512C181.577 106.912 181.481 106.072 180.905 105.592C179.393 104.416 177.473 103.72 175.361 103.72C170.561 103.744 166.577 107.608 166.553 112.36C166.577 117.136 170.561 121 175.361 121ZM187.132 121L187.156 120.976C187.156 120.976 187.156 121 187.204 121H194.98C195.676 121 196.3 120.4 196.3 119.68C196.3 118.936 195.676 118.336 194.98 118.336H188.476V113.92H194.068C194.788 113.92 195.388 113.32 195.388 112.576C195.388 111.88 194.788 111.256 194.068 111.256H188.476V106.864H194.98C195.676 106.864 196.3 106.264 196.3 105.52C196.3 104.776 195.676 104.2 194.98 104.2H187.204C187.156 104.2 187.156 104.2 187.156 104.2H187.132C186.388 104.2 185.812 104.776 185.812 105.52V119.68C185.812 120.4 186.388 121 187.132 121ZM208.631 118.336H203.519L208.055 114.232C209.303 113.104 209.951 111.52 209.951 109.96C209.951 108.592 209.471 107.176 208.463 106.096C207.335 104.848 205.751 104.2 204.191 104.2C202.823 104.2 201.407 104.68 200.327 105.688L199.583 106.36C199.031 106.864 199.007 107.68 199.487 108.232C199.991 108.784 200.807 108.832 201.359 108.328L202.103 107.656C202.703 107.128 203.447 106.864 204.191 106.864C205.031 106.864 205.871 107.176 206.495 107.872C207.023 108.472 207.287 109.192 207.287 109.96C207.287 110.824 206.975 111.64 206.279 112.264L199.175 118.696C198.647 119.2 198.599 120.016 199.103 120.568C199.343 120.856 199.727 121 200.087 121H200.111C200.135 121 200.135 121 200.135 121H208.631C209.375 121 209.951 120.424 209.951 119.68C209.951 118.936 209.375 118.336 208.631 118.336Z" fill="#00AFEC"/>
<defs>
<filter id="filter0_d" x="0" y="0" width="257" height="149" filterUnits="userSpaceOnUse" color-interpolation-filters="sRGB">
<feFlood flood-opacity="0" result="BackgroundImageFix"/>
<feColorMatrix in="SourceAlpha" type="matrix" values="0 0 0 0 0 0 0 0 0 0 0 0 0 0 0 0 0 0 127 0"/>
<feOffset dx="2" dy="2"/>
<feGaussianBlur stdDeviation="2"/>
<feColorMatrix type="matrix" values="0 0 0 0 0 0 0 0 0 0 0 0 0 0 0 0 0 0 0.25 0"/>
<feBlend mode="normal" in2="BackgroundImageFix" result="effect1_dropShadow"/>
<feBlend mode="normal" in="SourceGraphic" in2="effect1_dropShadow" result="shape"/>
</filter>
<linearGradient id="paint0_linear" x1="126.5" y1="2" x2="126.5" y2="143" gradientUnits="userSpaceOnUse">
<stop stop-color="#83DFFF"/>
<stop offset="1" stop-color="#00AFEC"/>
</linearGradient>
</defs>
</svg>
