<svg width="209" height="86" viewBox="0 0 209 86" fill="none" xmlns="http://www.w3.org/2000/svg">
<g filter="url(#filter0_d)">
<path d="M2 32C2 15.4315 15.4315 2 32 2H173C189.569 2 203 15.4315 203 32V50C203 66.5685 189.569 80 173 80H2V32Z" fill="white"/>
<path d="M3.5 32C3.5 16.2599 16.2599 3.5 32 3.5H173C188.74 3.5 201.5 16.2599 201.5 32V50C201.5 65.7401 188.74 78.5 173 78.5H3.5V32Z" stroke="url(#paint0_linear)" stroke-width="3"/>
</g>
<path d="M31.6207 34L31.6447 33.976C31.6447 33.976 31.6447 34 31.6927 34H39.4687C40.1647 34 40.7887 33.4 40.7887 32.68C40.7887 31.936 40.1647 31.336 39.4687 31.336H32.9647V26.92H38.5567C39.2767 26.92 39.8767 26.32 39.8767 25.576C39.8767 24.88 39.2767 24.256 38.5567 24.256H32.9647V19.864H39.4687C40.1647 19.864 40.7887 19.264 40.7887 18.52C40.7887 17.776 40.1647 17.2 39.4687 17.2H31.6927C31.6447 17.2 31.6447 17.2 31.6447 17.2H31.6207C30.8767 17.2 30.3007 17.776 30.3007 18.52V32.68C30.3007 33.4 30.8767 34 31.6207 34ZM36.8047 15.04C37.4767 15.04 37.9327 14.92 38.5087 14.392L40.1167 12.856C40.3567 12.64 40.5247 12.4 40.5247 12.136C40.5247 11.68 39.5647 11.2 38.7967 11.2C38.2927 11.2 37.9087 11.464 37.6447 11.896L36.2767 14.008C36.1807 14.152 36.0847 14.368 36.0847 14.536C36.0847 14.848 36.3967 15.04 36.8047 15.04ZM49.5193 34C50.9593 34 52.3033 33.472 53.3353 32.728C53.8873 32.248 53.9833 31.48 53.5993 30.952C53.1193 30.376 52.3273 30.28 51.7993 30.688C51.1753 31.144 50.3833 31.456 49.5193 31.456C47.5753 31.456 45.9673 29.872 45.9673 28.024C45.9673 26.176 47.5753 24.568 49.5193 24.568C50.4073 24.568 51.1753 24.88 51.7993 25.336C52.3513 25.768 53.1193 25.672 53.5993 25.096C53.9833 24.568 53.8873 23.752 53.3353 23.32C52.3033 22.528 50.9593 22 49.5193 22C46.2073 22.024 43.4233 24.688 43.4233 28.024C43.4233 31.312 46.2073 34 49.5193 34ZM64.0942 22.024C62.8942 22 61.8622 22.432 61.0702 22.96C60.9022 23.08 60.7102 23.272 60.5662 23.44V23.272C60.5662 22.576 59.9662 22.024 59.2462 22.024C58.5502 22.024 57.9742 22.576 57.9742 23.272V32.728C57.9742 33.424 58.5502 34 59.2462 34C59.9662 34 60.5662 33.424 60.5662 32.728V28.168C60.6862 27.832 60.9742 26.92 61.5502 26.152C61.8382 25.696 62.1982 25.288 62.6542 25C63.0622 24.688 63.5422 24.544 64.0942 24.544C64.8142 24.544 65.3662 23.944 65.3662 23.272C65.3662 22.576 64.8142 22.024 64.0942 22.024ZM69.8411 22.024C69.1211 22.024 68.5451 22.576 68.5451 23.344V32.704C68.5451 33.424 69.1211 34 69.8411 34C70.5851 34 71.1371 33.424 71.1371 32.704V23.344C71.1371 22.576 70.5851 22.024 69.8411 22.024ZM71.1371 18.496C71.1371 17.776 70.5851 17.2 69.8411 17.2C69.1211 17.2 68.5451 17.776 68.5451 18.496V19C68.5451 19.72 69.1211 20.32 69.8411 20.32C70.5851 20.32 71.1371 19.72 71.1371 19V18.496ZM79.3271 22H78.7271V18.52C78.7271 17.776 78.1511 17.2 77.4071 17.2C76.6631 17.2 76.0631 17.776 76.0631 18.52V22H75.3671C74.6231 22 74.0471 22.576 74.0471 23.32C74.0471 24.04 74.6231 24.64 75.3671 24.64H76.0631V31.336C76.0631 32.8 77.2631 34 78.7271 34C79.4711 34 80.0471 33.424 80.0471 32.68C80.0471 31.936 79.4711 31.336 78.7271 31.336V24.64H79.3271C80.0471 24.64 80.6711 24.04 80.6711 23.32C80.6711 22.576 80.0471 22 79.3271 22ZM92.2438 18.52V32.68C92.2438 33.4 92.8438 34 93.5638 34C94.3078 34 94.9078 33.4 94.9078 32.68V18.52C94.9078 17.8 94.3078 17.2 93.5638 17.2C92.8438 17.2 92.2438 17.8 92.2438 18.52ZM104.146 34C105.85 34 107.266 33.496 108.442 32.416C108.994 31.912 108.754 31.192 108.442 30.856C108.13 30.472 107.146 30.4 106.642 30.928C106.042 31.384 105.01 31.6 104.146 31.528C103.306 31.456 102.346 31.024 101.842 30.448C101.41 30.04 101.146 29.416 101.026 28.864H108.658C109.33 28.864 109.834 28.48 109.906 27.904C109.93 27.856 109.93 27.736 109.93 27.688C109.93 27.64 109.93 27.592 109.93 27.568C109.738 24.328 107.266 22 104.146 22C100.858 22 98.3144 24.736 98.2904 28C98.3144 31.264 100.858 33.976 104.146 34ZM104.146 24.28C106.234 24.448 107.458 25.864 107.698 26.824H100.906C101.098 25.84 102.106 24.376 104.146 24.28ZM126.207 34C127.647 34 128.991 33.472 130.023 32.728C130.575 32.248 130.671 31.48 130.287 30.952C129.807 30.376 129.015 30.28 128.487 30.688C127.863 31.144 127.071 31.456 126.207 31.456C124.263 31.456 122.655 29.872 122.655 28.024C122.655 26.176 124.263 24.568 126.207 24.568C127.095 24.568 127.863 24.88 128.487 25.336C129.039 25.768 129.807 25.672 130.287 25.096C130.671 24.568 130.575 23.752 130.023 23.32C128.991 22.528 127.647 22 126.207 22C122.895 22.024 120.111 24.688 120.111 28.024C120.111 31.312 122.895 34 126.207 34ZM139.542 34.072C141.126 34.072 142.566 33.376 143.55 32.248C144.63 31.192 145.23 29.704 145.23 28.024C145.23 26.392 144.63 24.976 143.55 23.824C142.566 22.696 141.126 22 139.542 22C137.886 22 136.494 22.696 135.414 23.824C134.382 24.976 133.758 26.392 133.758 28.024C133.758 29.704 134.382 31.192 135.414 32.248C136.494 33.376 137.886 34.072 139.542 34.072ZM137.238 25.528C137.838 25 138.63 24.616 139.542 24.616C140.382 24.616 141.15 25 141.75 25.528C142.35 26.176 142.686 27.04 142.686 28.024C142.686 29.056 142.35 29.896 141.75 30.568C141.15 31.144 140.382 31.456 139.542 31.456C138.63 31.456 137.838 31.144 137.238 30.568C136.686 29.896 136.374 29.056 136.374 28.024C136.374 27.04 136.686 26.176 137.238 25.528ZM160.182 28.024C160.182 28 160.182 28 160.182 28V18.496C160.182 17.8 159.606 17.2 158.886 17.2C158.142 17.2 157.566 17.8 157.566 18.496V23.008C156.678 22.384 155.526 22 154.35 22C151.11 22 148.518 24.736 148.518 28.024C148.518 31.264 151.11 34 154.35 34C155.55 34 156.702 33.592 157.614 32.968C157.734 33.544 158.238 34 158.886 34C159.606 34 160.182 33.4 160.182 32.704V28.024ZM156.606 25.6C157.206 26.2 157.566 27.064 157.566 28.024C157.566 28.936 157.206 29.8 156.606 30.4C156.006 31.024 155.238 31.384 154.35 31.384C153.486 31.384 152.694 31.024 152.094 30.4C151.494 29.8 151.134 28.936 151.134 28.024C151.134 27.064 151.494 26.2 152.094 25.6C152.694 24.976 153.486 24.616 154.35 24.616C155.238 24.616 156.006 24.976 156.606 25.6ZM169.818 34C171.522 34 172.938 33.496 174.114 32.416C174.666 31.912 174.426 31.192 174.114 30.856C173.802 30.472 172.818 30.4 172.314 30.928C171.714 31.384 170.682 31.6 169.818 31.528C168.978 31.456 168.018 31.024 167.514 30.448C167.082 30.04 166.818 29.416 166.698 28.864H174.33C175.002 28.864 175.506 28.48 175.578 27.904C175.602 27.856 175.602 27.736 175.602 27.688C175.602 27.64 175.602 27.592 175.602 27.568C175.41 24.328 172.938 22 169.818 22C166.53 22 163.986 24.736 163.962 28C163.986 31.264 166.53 33.976 169.818 34ZM169.818 24.28C171.906 24.448 173.13 25.864 173.37 26.824H166.578C166.77 25.84 167.778 24.376 169.818 24.28ZM45.1978 56.024C45.1978 56 45.1978 56 45.1978 56V46.496C45.1978 45.8 44.6218 45.2 43.9018 45.2C43.1578 45.2 42.5818 45.8 42.5818 46.496V51.008C41.6938 50.384 40.5418 50 39.3658 50C36.1258 50 33.5338 52.736 33.5338 56.024C33.5338 59.264 36.1258 62 39.3658 62C40.5658 62 41.7178 61.592 42.6298 60.968C42.7498 61.544 43.2538 62 43.9018 62C44.6218 62 45.1978 61.4 45.1978 60.704V56.024ZM41.6218 53.6C42.2218 54.2 42.5818 55.064 42.5818 56.024C42.5818 56.936 42.2218 57.8 41.6218 58.4C41.0218 59.024 40.2538 59.384 39.3658 59.384C38.5018 59.384 37.7098 59.024 37.1098 58.4C36.5098 57.8 36.1498 56.936 36.1498 56.024C36.1498 55.064 36.5098 54.2 37.1098 53.6C37.7098 52.976 38.5018 52.616 39.3658 52.616C40.2538 52.616 41.0218 52.976 41.6218 53.6ZM54.8339 62C56.5379 62 57.9539 61.496 59.1299 60.416C59.6819 59.912 59.4419 59.192 59.1299 58.856C58.8179 58.472 57.8339 58.4 57.3299 58.928C56.7299 59.384 55.6979 59.6 54.8339 59.528C53.9939 59.456 53.0339 59.024 52.5299 58.448C52.0979 58.04 51.8339 57.416 51.7139 56.864H59.3459C60.0179 56.864 60.5219 56.48 60.5939 55.904C60.6179 55.856 60.6179 55.736 60.6179 55.688C60.6179 55.64 60.6179 55.592 60.6179 55.568C60.4259 52.328 57.9539 50 54.8339 50C51.5459 50 49.0019 52.736 48.9779 56C49.0019 59.264 51.5459 61.976 54.8339 62ZM54.8339 52.28C56.9219 52.448 58.1459 53.864 58.3859 54.824H51.5939C51.7859 53.84 52.7939 52.376 54.8339 52.28ZM75.6943 50H75.0943V46.52C75.0943 45.776 74.5183 45.2 73.7743 45.2C73.0303 45.2 72.4303 45.776 72.4303 46.52V50H71.7343C70.9902 50 70.4143 50.576 70.4143 51.32C70.4143 52.04 70.9902 52.64 71.7343 52.64H72.4303V59.336C72.4303 60.8 73.6303 62 75.0943 62C75.8383 62 76.4143 61.424 76.4143 60.68C76.4143 59.936 75.8383 59.336 75.0943 59.336V52.64H75.6943C76.4143 52.64 77.0383 52.04 77.0383 51.32C77.0383 50.576 76.4143 50 75.6943 50ZM90.6731 51.296C90.6731 50.576 90.0971 50 89.4011 50C88.7771 50 88.2971 50.456 88.1531 51.056C87.2411 50.408 86.1611 50 84.9611 50C83.3291 50 81.9131 50.696 80.8811 51.8C79.8491 52.88 79.2491 54.368 79.2491 56.024C79.2491 57.656 79.8491 59.144 80.8811 60.248C81.9131 61.328 83.3291 62 84.9611 62C86.1611 62 87.2411 61.616 88.1531 60.968C88.2971 61.544 88.7771 62 89.4011 62C90.0971 62 90.6731 61.424 90.6731 60.728V56.024V51.296ZM87.1931 58.496C86.6171 59.096 85.8011 59.432 84.9611 59.432C84.0971 59.432 83.2811 59.096 82.7291 58.496C82.1531 57.872 81.8171 57.008 81.8171 56.024C81.8171 55.016 82.1531 54.152 82.7291 53.552C83.2811 52.904 84.0971 52.568 84.9611 52.568C85.8011 52.568 86.6171 52.904 87.1931 53.552C87.7691 54.152 88.1291 55.016 88.1291 56.024C88.1291 57.008 87.7691 57.872 87.1931 58.496ZM107.832 62C109.272 62 110.616 61.472 111.648 60.728C112.2 60.248 112.296 59.48 111.912 58.952C111.432 58.376 110.64 58.28 110.112 58.688C109.488 59.144 108.696 59.456 107.832 59.456C105.888 59.456 104.28 57.872 104.28 56.024C104.28 54.176 105.888 52.568 107.832 52.568C108.72 52.568 109.488 52.88 110.112 53.336C110.664 53.768 111.432 53.672 111.912 53.096C112.296 52.568 112.2 51.752 111.648 51.32C110.616 50.528 109.272 50 107.832 50C104.52 50.024 101.736 52.688 101.736 56.024C101.736 59.312 104.52 62 107.832 62ZM116.455 46.52V60.68C116.455 61.4 117.055 62 117.775 62C118.519 62 119.119 61.4 119.119 60.68V46.52C119.119 45.8 118.519 45.2 117.775 45.2C117.055 45.2 116.455 45.8 116.455 46.52ZM132.415 51.296C132.415 50.576 131.839 50 131.143 50C130.519 50 130.039 50.456 129.895 51.056C128.983 50.408 127.903 50 126.703 50C125.071 50 123.655 50.696 122.623 51.8C121.591 52.88 120.991 54.368 120.991 56.024C120.991 57.656 121.591 59.144 122.623 60.248C123.655 61.328 125.071 62 126.703 62C127.903 62 128.983 61.616 129.895 60.968C130.039 61.544 130.519 62 131.143 62C131.839 62 132.415 61.424 132.415 60.728V56.024V51.296ZM128.935 58.496C128.359 59.096 127.543 59.432 126.703 59.432C125.839 59.432 125.023 59.096 124.471 58.496C123.895 57.872 123.559 57.008 123.559 56.024C123.559 55.016 123.895 54.152 124.471 53.552C125.023 52.904 125.839 52.568 126.703 52.568C127.543 52.568 128.359 52.904 128.935 53.552C129.511 54.152 129.871 55.016 129.871 56.024C129.871 57.008 129.511 57.872 128.935 58.496ZM136.715 60.344C137.675 61.112 139.115 61.976 140.987 62C142.163 62 143.243 61.64 144.107 61.04C144.971 60.416 145.619 59.432 145.619 58.256C145.619 57.704 145.451 57.152 145.163 56.672C144.755 56 144.107 55.544 143.459 55.256C142.763 54.92 142.019 54.704 141.227 54.56H141.203L141.179 54.536C140.363 54.392 139.739 54.176 139.427 53.96C139.259 53.864 139.187 53.768 139.163 53.72C139.115 53.648 139.115 53.624 139.115 53.528C139.115 53.408 139.187 53.192 139.499 52.976C139.811 52.736 140.339 52.544 140.939 52.544C141.707 52.544 142.379 52.928 143.147 53.432C143.747 53.84 144.539 53.672 144.923 53.096C145.283 52.496 145.115 51.704 144.539 51.32C143.771 50.792 142.595 50 140.939 50C139.835 50 138.827 50.312 137.987 50.888C137.195 51.488 136.571 52.424 136.571 53.528C136.571 54.08 136.715 54.608 136.979 55.04C137.411 55.688 137.987 56.12 138.635 56.432C139.259 56.72 139.979 56.912 140.723 57.056H140.747C141.611 57.224 142.331 57.488 142.667 57.728C142.859 57.848 142.955 57.944 142.979 58.016C143.027 58.088 143.051 58.136 143.051 58.256C143.051 58.448 142.955 58.688 142.619 58.976C142.235 59.216 141.635 59.432 140.987 59.432C140.051 59.456 138.971 58.904 138.347 58.376C137.819 57.92 136.979 57.992 136.547 58.568C136.115 59.096 136.187 59.912 136.715 60.344ZM148.293 60.344C149.253 61.112 150.693 61.976 152.565 62C153.741 62 154.821 61.64 155.685 61.04C156.549 60.416 157.197 59.432 157.197 58.256C157.197 57.704 157.029 57.152 156.741 56.672C156.333 56 155.685 55.544 155.037 55.256C154.341 54.92 153.597 54.704 152.805 54.56H152.781L152.757 54.536C151.941 54.392 151.317 54.176 151.005 53.96C150.837 53.864 150.765 53.768 150.741 53.72C150.693 53.648 150.693 53.624 150.693 53.528C150.693 53.408 150.765 53.192 151.077 52.976C151.389 52.736 151.917 52.544 152.517 52.544C153.285 52.544 153.957 52.928 154.725 53.432C155.325 53.84 156.117 53.672 156.501 53.096C156.861 52.496 156.693 51.704 156.117 51.32C155.349 50.792 154.173 50 152.517 50C151.413 50 150.405 50.312 149.565 50.888C148.773 51.488 148.149 52.424 148.149 53.528C148.149 54.08 148.293 54.608 148.557 55.04C148.989 55.688 149.565 56.12 150.213 56.432C150.837 56.72 151.557 56.912 152.301 57.056H152.325C153.189 57.224 153.909 57.488 154.245 57.728C154.437 57.848 154.533 57.944 154.557 58.016C154.605 58.088 154.629 58.136 154.629 58.256C154.629 58.448 154.533 58.688 154.197 58.976C153.813 59.216 153.213 59.432 152.565 59.432C151.629 59.456 150.549 58.904 149.925 58.376C149.397 57.92 148.557 57.992 148.125 58.568C147.693 59.096 147.765 59.912 148.293 60.344ZM165.529 62C167.233 62 168.649 61.496 169.825 60.416C170.377 59.912 170.137 59.192 169.825 58.856C169.513 58.472 168.529 58.4 168.025 58.928C167.425 59.384 166.393 59.6 165.529 59.528C164.689 59.456 163.729 59.024 163.225 58.448C162.793 58.04 162.529 57.416 162.409 56.864H170.041C170.713 56.864 171.217 56.48 171.289 55.904C171.313 55.856 171.313 55.736 171.313 55.688C171.313 55.64 171.313 55.592 171.313 55.568C171.121 52.328 168.649 50 165.529 50C162.241 50 159.697 52.736 159.673 56C159.697 59.264 162.241 61.976 165.529 62ZM165.529 52.28C167.617 52.448 168.841 53.864 169.081 54.824H162.289C162.481 53.84 163.489 52.376 165.529 52.28Z" fill="#00AFEC"/>
<defs>
<filter id="filter0_d" x="0" y="0" width="209" height="86" filterUnits="userSpaceOnUse" color-interpolation-filters="sRGB">
<feFlood flood-opacity="0" result="BackgroundImageFix"/>
<feColorMatrix in="SourceAlpha" type="matrix" values="0 0 0 0 0 0 0 0 0 0 0 0 0 0 0 0 0 0 127 0"/>
<feOffset dx="2" dy="2"/>
<feGaussianBlur stdDeviation="2"/>
<feColorMatrix type="matrix" values="0 0 0 0 0 0 0 0 0 0 0 0 0 0 0 0 0 0 0.25 0"/>
<feBlend mode="normal" in2="BackgroundImageFix" result="effect1_dropShadow"/>
<feBlend mode="normal" in="SourceGraphic" in2="effect1_dropShadow" result="shape"/>
</filter>
<linearGradient id="paint0_linear" x1="102.5" y1="2" x2="102.5" y2="80" gradientUnits="userSpaceOnUse">
<stop stop-color="#83DFFF"/>
<stop offset="1" stop-color="#00AFEC"/>
</linearGradient>
</defs>
</svg>
