<svg width="209" height="86" viewBox="0 0 209 86" fill="none" xmlns="http://www.w3.org/2000/svg">
<g filter="url(#filter0_d)">
<path d="M2 32C2 15.4315 15.4315 2 32 2H173C189.569 2 203 15.4315 203 32V50C203 66.5685 189.569 80 173 80H2V32Z" fill="white"/>
<path d="M3.5 32C3.5 16.2599 16.2599 3.5 32 3.5H173C188.74 3.5 201.5 16.2599 201.5 32V50C201.5 65.7401 188.74 78.5 173 78.5H3.5V32Z" stroke="url(#paint0_linear)" stroke-width="3"/>
</g>
<path d="M50.9506 33.5957C53.0626 33.5957 54.9826 32.8997 56.4946 31.7237C57.0706 31.2677 57.1666 30.4037 56.7346 29.8037C56.2546 29.2277 55.3666 29.1317 54.8146 29.5397C53.7346 30.4037 52.4386 30.8597 50.9506 30.8597C49.2946 30.8597 47.7586 30.1877 46.6306 29.1317C45.5506 28.0757 44.8786 26.5877 44.8786 24.9557C44.8786 23.3237 45.5506 21.8837 46.6306 20.7797C47.7586 19.7237 49.2946 19.0517 50.9506 19.0517C52.4386 19.0517 53.7586 19.5077 54.8146 20.3717C55.3666 20.8037 56.2546 20.7077 56.7346 20.1077C57.1666 19.5077 57.0706 18.6677 56.4946 18.1877C54.9826 17.0117 53.0626 16.3157 50.9506 16.3157C46.1506 16.3397 42.1666 20.2037 42.1426 24.9557C42.1666 29.7317 46.1506 33.5957 50.9506 33.5957ZM63.8023 26.8517C63.8263 25.4357 64.9543 24.2837 66.3703 24.2597C67.8103 24.2837 68.9623 25.4357 68.9623 26.8517V32.2757C68.9623 33.0197 69.5383 33.5957 70.2823 33.5957C71.0262 33.5957 71.6023 33.0197 71.6023 32.2757V26.8517C71.6023 23.9717 69.2743 21.5957 66.3703 21.5957C65.4343 21.5957 64.5703 21.8837 63.8023 22.2917V18.1157C63.8023 17.3717 63.2023 16.7957 62.4583 16.7957C61.7383 16.7957 61.1383 17.3717 61.1383 18.1157V32.2757C61.1383 32.3957 61.1623 32.5157 61.1863 32.6117C61.3543 33.1637 61.8583 33.5957 62.4583 33.5957C63.2023 33.5957 63.8023 33.0197 63.8023 32.2757V26.8517ZM81.089 33.6677C82.673 33.6677 84.113 32.9717 85.097 31.8437C86.177 30.7877 86.777 29.2997 86.777 27.6197C86.777 25.9877 86.177 24.5717 85.097 23.4197C84.113 22.2917 82.673 21.5957 81.089 21.5957C79.433 21.5957 78.041 22.2917 76.961 23.4197C75.929 24.5717 75.305 25.9877 75.305 27.6197C75.305 29.2997 75.929 30.7877 76.961 31.8437C78.041 32.9717 79.433 33.6677 81.089 33.6677ZM78.785 25.1237C79.385 24.5957 80.177 24.2117 81.089 24.2117C81.929 24.2117 82.697 24.5957 83.297 25.1237C83.897 25.7717 84.233 26.6357 84.233 27.6197C84.233 28.6517 83.897 29.4917 83.297 30.1637C82.697 30.7397 81.929 31.0517 81.089 31.0517C80.177 31.0517 79.385 30.7397 78.785 30.1637C78.233 29.4917 77.921 28.6517 77.921 27.6197C77.921 26.6357 78.233 25.7717 78.785 25.1237ZM92.177 21.6197C91.457 21.6197 90.881 22.1717 90.881 22.9397V32.2997C90.881 33.0197 91.457 33.5957 92.177 33.5957C92.921 33.5957 93.473 33.0197 93.473 32.2997V22.9397C93.473 22.1717 92.921 21.6197 92.177 21.6197ZM93.473 18.0917C93.473 17.3717 92.921 16.7957 92.177 16.7957C91.457 16.7957 90.881 17.3717 90.881 18.0917V18.5957C90.881 19.3157 91.457 19.9157 92.177 19.9157C92.921 19.9157 93.473 19.3157 93.473 18.5957V18.0917ZM97.199 31.9397C98.159 32.7077 99.599 33.5717 101.471 33.5957C102.647 33.5957 103.727 33.2357 104.591 32.6357C105.455 32.0117 106.103 31.0277 106.103 29.8517C106.103 29.2997 105.935 28.7477 105.647 28.2677C105.239 27.5957 104.591 27.1397 103.943 26.8517C103.247 26.5157 102.503 26.2997 101.711 26.1557H101.687L101.663 26.1317C100.847 25.9877 100.223 25.7717 99.911 25.5557C99.743 25.4597 99.671 25.3637 99.647 25.3157C99.599 25.2437 99.599 25.2197 99.599 25.1237C99.599 25.0037 99.671 24.7877 99.983 24.5717C100.295 24.3317 100.823 24.1397 101.423 24.1397C102.191 24.1397 102.863 24.5237 103.631 25.0277C104.231 25.4357 105.023 25.2677 105.407 24.6917C105.767 24.0917 105.599 23.2997 105.023 22.9157C104.255 22.3877 103.079 21.5957 101.423 21.5957C100.319 21.5957 99.311 21.9077 98.471 22.4837C97.679 23.0837 97.055 24.0197 97.055 25.1237C97.055 25.6757 97.199 26.2037 97.463 26.6357C97.895 27.2837 98.471 27.7157 99.119 28.0277C99.743 28.3157 100.463 28.5077 101.207 28.6517H101.231C102.095 28.8197 102.815 29.0837 103.151 29.3237C103.343 29.4437 103.439 29.5397 103.463 29.6117C103.511 29.6837 103.535 29.7317 103.535 29.8517C103.535 30.0437 103.439 30.2837 103.103 30.5717C102.719 30.8117 102.119 31.0277 101.471 31.0277C100.535 31.0517 99.455 30.4997 98.831 29.9717C98.303 29.5157 97.463 29.5877 97.031 30.1637C96.599 30.6917 96.671 31.5077 97.199 31.9397ZM110.74 21.6197C110.02 21.6197 109.444 22.1717 109.444 22.9397V32.2997C109.444 33.0197 110.02 33.5957 110.74 33.5957C111.484 33.5957 112.036 33.0197 112.036 32.2997V22.9397C112.036 22.1717 111.484 21.6197 110.74 21.6197ZM112.036 18.0917C112.036 17.3717 111.484 16.7957 110.74 16.7957C110.02 16.7957 109.444 17.3717 109.444 18.0917V18.5957C109.444 19.3157 110.02 19.9157 110.74 19.9157C111.484 19.9157 112.036 19.3157 112.036 18.5957V18.0917ZM133.181 28.6037V22.8677C133.181 22.1957 132.557 21.5957 131.885 21.5957C131.165 21.5957 130.637 22.1957 130.637 22.8677V28.6037C130.613 29.9717 129.509 31.0517 128.117 31.0517C126.749 31.0517 125.669 29.9717 125.669 28.6037V22.8677C125.669 22.1957 125.117 21.5957 124.397 21.5957C123.701 21.5957 123.125 22.1957 123.125 22.8677V28.6037C123.125 31.3397 125.381 33.5957 128.117 33.5957C130.877 33.5957 133.181 31.3397 133.181 28.6037ZM142.49 21.5957C141.554 21.5957 140.666 21.8837 139.946 22.3397C139.73 21.8837 139.274 21.5957 138.77 21.5957C138.05 21.5957 137.498 22.1717 137.498 22.8677V26.5877V32.3237C137.498 33.0197 138.05 33.5957 138.77 33.5957C139.394 33.5957 139.922 33.1397 140.042 32.5637C140.09 32.4677 140.09 32.3957 140.09 32.3237V26.5877C140.09 25.2437 141.146 24.1637 142.49 24.1637C143.858 24.1637 144.986 25.2437 144.986 26.5877V32.3237C144.986 33.0197 145.586 33.5957 146.258 33.5957C146.954 33.5957 147.506 33.0197 147.506 32.3237V26.5877C147.506 23.8757 145.274 21.5957 142.49 21.5957ZM157.232 33.5957C158.936 33.5957 160.352 33.0917 161.528 32.0117C162.08 31.5077 161.84 30.7877 161.528 30.4517C161.216 30.0677 160.232 29.9957 159.728 30.5237C159.128 30.9797 158.096 31.1957 157.232 31.1237C156.392 31.0517 155.432 30.6197 154.928 30.0437C154.496 29.6357 154.232 29.0117 154.112 28.4597H161.744C162.416 28.4597 162.92 28.0757 162.992 27.4997C163.016 27.4517 163.016 27.3317 163.016 27.2837C163.016 27.2357 163.016 27.1877 163.016 27.1637C162.824 23.9237 160.352 21.5957 157.232 21.5957C153.944 21.5957 151.4 24.3317 151.376 27.5957C151.4 30.8597 153.944 33.5717 157.232 33.5957ZM157.232 23.8757C159.32 24.0437 160.544 25.4597 160.784 26.4197H153.992C154.184 25.4357 155.192 23.9717 157.232 23.8757ZM46.6743 55.6197C46.6743 55.5957 46.6743 55.5957 46.6743 55.5957V46.0917C46.6743 45.3957 46.0983 44.7957 45.3783 44.7957C44.6343 44.7957 44.0583 45.3957 44.0583 46.0917V50.6037C43.1703 49.9797 42.0183 49.5957 40.8423 49.5957C37.6023 49.5957 35.0103 52.3317 35.0103 55.6197C35.0103 58.8597 37.6023 61.5957 40.8423 61.5957C42.0423 61.5957 43.1943 61.1877 44.1063 60.5637C44.2263 61.1397 44.7303 61.5957 45.3783 61.5957C46.0983 61.5957 46.6743 60.9957 46.6743 60.2997V55.6197ZM43.0983 53.1957C43.6983 53.7957 44.0583 54.6597 44.0583 55.6197C44.0583 56.5317 43.6983 57.3957 43.0983 57.9957C42.4983 58.6197 41.7303 58.9797 40.8423 58.9797C39.9783 58.9797 39.1863 58.6197 38.5863 57.9957C37.9863 57.3957 37.6263 56.5317 37.6263 55.6197C37.6263 54.6597 37.9863 53.7957 38.5863 53.1957C39.1863 52.5717 39.9783 52.2117 40.8423 52.2117C41.7303 52.2117 42.4983 52.5717 43.0983 53.1957ZM56.3105 61.5957C58.0145 61.5957 59.4305 61.0917 60.6065 60.0117C61.1585 59.5077 60.9185 58.7877 60.6065 58.4517C60.2945 58.0677 59.3105 57.9957 58.8065 58.5237C58.2065 58.9797 57.1745 59.1957 56.3105 59.1237C55.4705 59.0517 54.5105 58.6197 54.0065 58.0437C53.5745 57.6357 53.3105 57.0117 53.1905 56.4597H60.8225C61.4945 56.4597 61.9985 56.0757 62.0705 55.4997C62.0945 55.4517 62.0945 55.3317 62.0945 55.2837C62.0945 55.2357 62.0945 55.1877 62.0945 55.1637C61.9025 51.9237 59.4305 49.5957 56.3105 49.5957C53.0225 49.5957 50.4785 52.3317 50.4545 55.5957C50.4785 58.8597 53.0225 61.5717 56.3105 61.5957ZM56.3105 51.8757C58.3985 52.0437 59.6225 53.4597 59.8625 54.4197H53.0705C53.2625 53.4357 54.2705 51.9717 56.3105 51.8757ZM65.5115 59.9397C66.4715 60.7077 67.9115 61.5717 69.7835 61.5957C70.9595 61.5957 72.0395 61.2357 72.9035 60.6357C73.7675 60.0117 74.4155 59.0277 74.4155 57.8517C74.4155 57.2997 74.2475 56.7477 73.9595 56.2677C73.5515 55.5957 72.9035 55.1397 72.2555 54.8517C71.5595 54.5157 70.8155 54.2997 70.0235 54.1557H69.9995L69.9755 54.1317C69.1595 53.9877 68.5355 53.7717 68.2235 53.5557C68.0555 53.4597 67.9835 53.3637 67.9595 53.3157C67.9115 53.2437 67.9115 53.2197 67.9115 53.1237C67.9115 53.0037 67.9835 52.7877 68.2955 52.5717C68.6075 52.3317 69.1355 52.1397 69.7355 52.1397C70.5035 52.1397 71.1755 52.5237 71.9435 53.0277C72.5435 53.4357 73.3355 53.2677 73.7195 52.6917C74.0795 52.0917 73.9115 51.2997 73.3355 50.9157C72.5675 50.3877 71.3915 49.5957 69.7355 49.5957C68.6315 49.5957 67.6235 49.9077 66.7835 50.4837C65.9915 51.0837 65.3675 52.0197 65.3675 53.1237C65.3675 53.6757 65.5115 54.2037 65.7755 54.6357C66.2075 55.2837 66.7835 55.7157 67.4315 56.0277C68.0555 56.3157 68.7755 56.5077 69.5195 56.6517H69.5435C70.4075 56.8197 71.1275 57.0837 71.4635 57.3237C71.6555 57.4437 71.7515 57.5397 71.7755 57.6117C71.8235 57.6837 71.8475 57.7317 71.8475 57.8517C71.8475 58.0437 71.7515 58.2837 71.4155 58.5717C71.0315 58.8117 70.4315 59.0277 69.7835 59.0277C68.8475 59.0517 67.7675 58.4997 67.1435 57.9717C66.6155 57.5157 65.7755 57.5877 65.3435 58.1637C64.9115 58.6917 64.9835 59.5077 65.5115 59.9397ZM90.1593 61.6677C91.7433 61.6677 93.1833 60.9717 94.1673 59.8437C95.2473 58.7877 95.8473 57.2997 95.8473 55.6197C95.8473 53.9877 95.2473 52.5717 94.1673 51.4197C93.1833 50.2917 91.7433 49.5957 90.1593 49.5957C88.5033 49.5957 87.1113 50.2917 86.0313 51.4197C84.9993 52.5717 84.3753 53.9877 84.3753 55.6197C84.3753 57.2997 84.9993 58.7877 86.0313 59.8437C87.1113 60.9717 88.5033 61.6677 90.1593 61.6677ZM87.8553 53.1237C88.4553 52.5957 89.2473 52.2117 90.1593 52.2117C90.9993 52.2117 91.7673 52.5957 92.3673 53.1237C92.9673 53.7717 93.3033 54.6357 93.3033 55.6197C93.3033 56.6517 92.9673 57.4917 92.3673 58.1637C91.7673 58.7397 90.9993 59.0517 90.1593 59.0517C89.2473 59.0517 88.4553 58.7397 87.8553 58.1637C87.3033 57.4917 86.9913 56.6517 86.9913 55.6197C86.9913 54.6357 87.3033 53.7717 87.8553 53.1237ZM101.199 66.1077C101.967 66.1077 102.567 65.4837 102.567 64.8117V60.5877C103.431 61.2117 104.583 61.5717 105.783 61.5717C108.975 61.5717 111.591 58.9077 111.591 55.6197C111.591 52.3317 108.975 49.5957 105.783 49.5957C104.559 49.5957 103.407 50.0037 102.519 50.5797C102.423 50.0517 101.871 49.5957 101.199 49.5957C100.503 49.5957 99.9273 50.1717 99.9273 50.8677V55.6197C99.9273 55.6437 99.9273 55.6437 99.9273 55.6437V64.8117C99.9273 65.4837 100.503 66.1077 101.199 66.1077ZM103.503 53.1957C104.103 52.5477 104.895 52.2117 105.783 52.2117C106.599 52.2117 107.415 52.5477 108.039 53.1957C108.591 53.8197 108.975 54.6837 108.975 55.6197C108.975 56.5557 108.591 57.4677 108.039 58.0197C107.415 58.6917 106.599 59.0277 105.783 59.0277C104.895 59.0277 104.103 58.6917 103.503 58.0197C102.879 57.4677 102.567 56.5557 102.567 55.6197C102.567 54.6837 102.879 53.8197 103.503 53.1957ZM119.827 49.5957H119.227V46.1157C119.227 45.3717 118.651 44.7957 117.907 44.7957C117.163 44.7957 116.563 45.3717 116.563 46.1157V49.5957H115.867C115.123 49.5957 114.547 50.1717 114.547 50.9157C114.547 51.6357 115.123 52.2357 115.867 52.2357H116.563V58.9317C116.563 60.3957 117.763 61.5957 119.227 61.5957C119.971 61.5957 120.547 61.0197 120.547 60.2757C120.547 59.5317 119.971 58.9317 119.227 58.9317V52.2357H119.827C120.547 52.2357 121.171 51.6357 121.171 50.9157C121.171 50.1717 120.547 49.5957 119.827 49.5957ZM126.7 49.6197C125.98 49.6197 125.404 50.1717 125.404 50.9397V60.2997C125.404 61.0197 125.98 61.5957 126.7 61.5957C127.444 61.5957 127.996 61.0197 127.996 60.2997V50.9397C127.996 50.1717 127.444 49.6197 126.7 49.6197ZM127.996 46.0917C127.996 45.3717 127.444 44.7957 126.7 44.7957C125.98 44.7957 125.404 45.3717 125.404 46.0917V46.5957C125.404 47.3157 125.98 47.9157 126.7 47.9157C127.444 47.9157 127.996 47.3157 127.996 46.5957V46.0917ZM137.362 61.6677C138.946 61.6677 140.386 60.9717 141.37 59.8437C142.45 58.7877 143.05 57.2997 143.05 55.6197C143.05 53.9877 142.45 52.5717 141.37 51.4197C140.386 50.2917 138.946 49.5957 137.362 49.5957C135.706 49.5957 134.314 50.2917 133.234 51.4197C132.202 52.5717 131.578 53.9877 131.578 55.6197C131.578 57.2997 132.202 58.7877 133.234 59.8437C134.314 60.9717 135.706 61.6677 137.362 61.6677ZM135.058 53.1237C135.658 52.5957 136.45 52.2117 137.362 52.2117C138.202 52.2117 138.97 52.5957 139.57 53.1237C140.17 53.7717 140.506 54.6357 140.506 55.6197C140.506 56.6517 140.17 57.4917 139.57 58.1637C138.97 58.7397 138.202 59.0517 137.362 59.0517C136.45 59.0517 135.658 58.7397 135.058 58.1637C134.506 57.4917 134.194 56.6517 134.194 55.6197C134.194 54.6357 134.506 53.7717 135.058 53.1237ZM152.122 49.5957C151.186 49.5957 150.298 49.8837 149.578 50.3397C149.362 49.8837 148.906 49.5957 148.402 49.5957C147.682 49.5957 147.13 50.1717 147.13 50.8677V54.5877V60.3237C147.13 61.0197 147.682 61.5957 148.402 61.5957C149.026 61.5957 149.554 61.1397 149.674 60.5637C149.722 60.4677 149.722 60.3957 149.722 60.3237V54.5877C149.722 53.2437 150.778 52.1637 152.122 52.1637C153.49 52.1637 154.618 53.2437 154.618 54.5877V60.3237C154.618 61.0197 155.218 61.5957 155.89 61.5957C156.586 61.5957 157.138 61.0197 157.138 60.3237V54.5877C157.138 51.8757 154.906 49.5957 152.122 49.5957ZM161.441 59.9397C162.401 60.7077 163.841 61.5717 165.713 61.5957C166.889 61.5957 167.969 61.2357 168.833 60.6357C169.697 60.0117 170.345 59.0277 170.345 57.8517C170.345 57.2997 170.177 56.7477 169.889 56.2677C169.481 55.5957 168.833 55.1397 168.185 54.8517C167.489 54.5157 166.745 54.2997 165.953 54.1557H165.929L165.905 54.1317C165.089 53.9877 164.465 53.7717 164.153 53.5557C163.985 53.4597 163.913 53.3637 163.889 53.3157C163.841 53.2437 163.841 53.2197 163.841 53.1237C163.841 53.0037 163.913 52.7877 164.225 52.5717C164.537 52.3317 165.065 52.1397 165.665 52.1397C166.433 52.1397 167.105 52.5237 167.873 53.0277C168.473 53.4357 169.265 53.2677 169.649 52.6917C170.009 52.0917 169.841 51.2997 169.265 50.9157C168.497 50.3877 167.321 49.5957 165.665 49.5957C164.561 49.5957 163.553 49.9077 162.713 50.4837C161.921 51.0837 161.297 52.0197 161.297 53.1237C161.297 53.6757 161.441 54.2037 161.705 54.6357C162.137 55.2837 162.713 55.7157 163.361 56.0277C163.985 56.3157 164.705 56.5077 165.449 56.6517H165.473C166.337 56.8197 167.057 57.0837 167.393 57.3237C167.585 57.4437 167.681 57.5397 167.705 57.6117C167.753 57.6837 167.777 57.7317 167.777 57.8517C167.777 58.0437 167.681 58.2837 167.345 58.5717C166.961 58.8117 166.361 59.0277 165.713 59.0277C164.777 59.0517 163.697 58.4997 163.073 57.9717C162.545 57.5157 161.705 57.5877 161.273 58.1637C160.841 58.6917 160.913 59.5077 161.441 59.9397Z" fill="#00AFEC"/>
<defs>
<filter id="filter0_d" x="0" y="0" width="209" height="86" filterUnits="userSpaceOnUse" color-interpolation-filters="sRGB">
<feFlood flood-opacity="0" result="BackgroundImageFix"/>
<feColorMatrix in="SourceAlpha" type="matrix" values="0 0 0 0 0 0 0 0 0 0 0 0 0 0 0 0 0 0 127 0"/>
<feOffset dx="2" dy="2"/>
<feGaussianBlur stdDeviation="2"/>
<feColorMatrix type="matrix" values="0 0 0 0 0 0 0 0 0 0 0 0 0 0 0 0 0 0 0.25 0"/>
<feBlend mode="normal" in2="BackgroundImageFix" result="effect1_dropShadow"/>
<feBlend mode="normal" in="SourceGraphic" in2="effect1_dropShadow" result="shape"/>
</filter>
<linearGradient id="paint0_linear" x1="102.5" y1="2" x2="102.5" y2="80" gradientUnits="userSpaceOnUse">
<stop stop-color="#83DFFF"/>
<stop offset="1" stop-color="#00AFEC"/>
</linearGradient>
</defs>
</svg>
